<svg xmlns="http://www.w3.org/2000/svg" width="500" height="500" style="width:100%;height:100%;transform:translate3d(0,0,0)" viewBox="0 0 500 500"><defs><clipPath id="g"><path d="M0 0h500v500H0z"/></clipPath><clipPath id="j"><path d="M0 0h500v500H0z"/></clipPath><clipPath id="e"><path d="M0 0h500v500H0z"/></clipPath><clipPath id="h"><path d="M0 0h500v500H0z"/></clipPath><clipPath id="f"><path d="M0 0h500v500H0z"/></clipPath><filter id="a" width="100%" height="100%" x="0%" y="0%" filterUnits="objectBoundingBox"><feComponentTransfer in="SourceGraphic"><feFuncA tableValues="1.0 0.0" type="table"/></feComponentTransfer></filter><filter id="c" width="100%" height="100%" x="0%" y="0%" filterUnits="objectBoundingBox"><feComponentTransfer in="SourceGraphic"><feFuncA tableValues="1.0 0.0" type="table"/></feComponentTransfer></filter><mask id="k" mask-type="alpha"><g filter="url(#a)"><path fill="#fff" d="M0 0h500v500H0z" opacity="0"/><use xmlns:a0="http://www.w3.org/1999/xlink" a0:href="#b"/></g></mask><mask id="i" mask-type="alpha"><g filter="url(#c)"><path fill="#fff" d="M0 0h500v500H0z" opacity="0"/><use xmlns:a1="http://www.w3.org/1999/xlink" a1:href="#d"/></g></mask><g id="b" clip-path="url(#e)" style="display:none"><g class="primary design" style="display:none"><path/><path fill-opacity="0" stroke-linecap="round" stroke-linejoin="round"/></g><g class="primary design" style="display:none"><path/><path fill-opacity="0" stroke-linecap="round" stroke-linejoin="round"/></g><g class="primary design" style="display:none"><path/><path fill-opacity="0" stroke-linecap="round" stroke-linejoin="round"/></g></g><g id="d" clip-path="url(#f)" style="display:none"><g class="primary design" style="display:none"><path/><path fill-opacity="0" stroke-linecap="round" stroke-linejoin="round"/></g><g class="primary design" style="display:none"><path/><path fill-opacity="0" stroke-linecap="round" stroke-linejoin="round"/></g><g class="primary design" style="display:none"><path/><path fill-opacity="0" stroke-linecap="round" stroke-linejoin="round"/></g></g></defs><g clip-path="url(#g)"><g clip-path="url(#h)" style="display:block"><path fill="none" class="primary design" style="display:none"/><g mask="url(#i)" style="display:none"><path class="primary design"/></g><path fill="#FFF" d="M3.25-7.998h-6.5c-3.72 0-6.75 3.03-6.75 6.75v8.5c0 .41.34.75.75.75h12.5c3.72 0 6.75-3.03 6.75-6.75v-2.5c0-3.72-3.03-6.75-6.75-6.75zM5.23.242c-.02.08-.04.16-.08.24-.03.07-.07.14-.11.21-.05.07-.1.13-.16.19-.05.06-.12.11-.19.16-.06.04-.14.08-.21.11-.08.03-.16.06-.24.07-.08.02-.16.03-.24.03-.33 0-.65-.14-.88-.37-.06-.06-.11-.12-.16-.19-.04-.07-.08-.14-.11-.21-.04-.08-.06-.16-.08-.24-.01-.08-.02-.16-.02-.24 0-.33.13-.65.37-.89.05-.05.12-.11.19-.15.06-.05.14-.09.21-.12.08-.03.16-.05.24-.07.4-.08.84.05 1.12.34.24.24.37.56.37.89 0 .08-.01.16-.02.24zM1.25.002c0 .33-.13.65-.37.88-.05.06-.12.11-.19.16-.06.04-.14.08-.21.11-.08.03-.16.06-.24.07a.986.986 0 0 1-.48 0c-.08-.01-.16-.04-.24-.07a1.39 1.39 0 0 1-.21-.11c-.07-.05-.14-.1-.19-.16-.24-.23-.37-.55-.37-.88 0-.33.13-.65.37-.89.05-.05.12-.11.19-.15.06-.05.14-.08.21-.12.08-.03.16-.05.24-.07a1.291 1.291 0 0 1 .72.07c.07.04.15.07.21.12.07.04.14.1.19.15.24.24.37.56.37.89zm-6.13-.88c.05-.06.12-.12.19-.16.06-.05.14-.08.21-.12.08-.03.16-.05.24-.07a1.291 1.291 0 0 1 .72.07c.07.04.15.07.21.12.07.04.14.1.19.16a1.234 1.234 0 0 1 0 1.76c-.05.06-.12.11-.19.16-.06.04-.14.08-.21.11-.08.03-.16.06-.24.07a.986.986 0 0 1-.48 0c-.08-.01-.16-.04-.24-.07a1.39 1.39 0 0 1-.21-.11c-.07-.05-.14-.1-.19-.16a1.234 1.234 0 0 1 0-1.76z" class="primary design" style="display:block" transform="translate(250 250) scale(20.83)"/><path class="primary design" style="display:none"/></g><g clip-path="url(#j)" opacity="0" style="display:block"><g class="primary design" mask="url(#k)" style="display:none"><path/><path fill="none"/></g><path class="primary design" style="display:none"/></g><g class="com" style="display:none"><path/><path/><path/><path/><path/><path/><path/><path/><path/><path/><path/><path/></g></g></svg>