<svg xmlns="http://www.w3.org/2000/svg" width="500" height="500" style="width:100%;height:100%;transform:translate3d(0,0,0)" viewBox="0 0 500 500"><defs><clipPath id="j"><path d="M0 0h500v500H0z"/></clipPath><clipPath id="o"><path d="M0 0h500v500H0z"/></clipPath><clipPath id="g"><path d="M0 0h500v500H0z"/></clipPath><clipPath id="m"><path d="M0 0h500v500H0z"/></clipPath><clipPath id="h"><path d="M0 0h500v500H0z"/></clipPath><clipPath id="k"><path d="M0 0h500v500H0z"/></clipPath><clipPath id="i"><path d="M0 0h500v500H0z"/></clipPath><filter id="a" width="100%" height="100%" x="0%" y="0%" filterUnits="objectBoundingBox"><feComponentTransfer in="SourceGraphic"><feFuncA tableValues="1.0 0.0" type="table"/></feComponentTransfer></filter><filter id="c" width="100%" height="100%" x="0%" y="0%" filterUnits="objectBoundingBox"><feComponentTransfer in="SourceGraphic"><feFuncA tableValues="1.0 0.0" type="table"/></feComponentTransfer></filter><filter id="e" width="100%" height="100%" x="0%" y="0%" filterUnits="objectBoundingBox"><feComponentTransfer in="SourceGraphic"><feFuncA tableValues="1.0 0.0" type="table"/></feComponentTransfer></filter><mask id="p" mask-type="alpha"><g filter="url(#a)"><path fill="#fff" d="M0 0h500v500H0z" opacity="0"/><use xmlns:a0="http://www.w3.org/1999/xlink" a0:href="#b"/></g></mask><mask id="n" mask-type="alpha"><g filter="url(#c)"><path fill="#fff" d="M0 0h500v500H0z" opacity="0"/><use xmlns:a1="http://www.w3.org/1999/xlink" a1:href="#d"/></g></mask><mask id="l" mask-type="alpha"><g filter="url(#e)"><path fill="#fff" d="M0 0h500v500H0z" opacity="0"/><use xmlns:a2="http://www.w3.org/1999/xlink" a2:href="#f"/></g></mask><g id="b" fill-opacity="0" stroke-linecap="round" clip-path="url(#g)" style="display:none"><path stroke-linejoin="round" class="primary design" style="display:none"/><path stroke-miterlimit="10" class="primary design" style="display:none"/></g><g id="d" fill-opacity="0" stroke-linecap="round" clip-path="url(#h)" style="display:none"><path stroke-linejoin="round" class="primary design" style="display:none"/><path stroke-miterlimit="10" class="primary design" style="display:none"/></g><g id="f" fill-opacity="0" stroke-linecap="round" clip-path="url(#i)" style="display:none"><path stroke-linejoin="round" class="primary design" style="display:none"/><path stroke-miterlimit="10" class="primary design" style="display:none"/></g></defs><g clip-path="url(#j)"><g clip-path="url(#k)" opacity="0" style="display:block"><g class="primary design" mask="url(#l)" style="display:none"><path/><path fill="none"/></g><path fill="#15C69E" d="M144.15-151.323C103.736-189.654 51.031-210.07-4.59-208.82c-55.621 1.458-107.493 24.373-145.824 64.579-38.331 40.414-58.746 93.12-57.496 148.741 1.458 55.621 24.373 107.492 64.579 145.823C-104.167 187.612-53.545 207.82.201 207.82h5.208c55.621-1.458 107.493-24.373 145.824-64.579 37.289-39.164 57.496-89.994 57.496-143.949V-5.5c-1.458-55.621-24.373-107.492-64.579-145.823zM-20.422-104.66c0-11.458 9.374-20.832 20.832-20.832s20.831 9.374 20.831 20.832V-.5c0 11.458-9.373 20.832-20.831 20.832S-20.422 10.958-20.422-.5v-104.16zm39.164 205.82c-1.042 1.25-2.5 2.291-3.958 3.333-1.25.833-2.917 1.667-4.375 2.292-1.667.833-3.333 1.249-5 1.666-1.667.208-3.332.417-4.999.417-6.875 0-13.542-2.708-18.333-7.708-5-4.791-7.707-11.457-7.707-18.332s2.707-13.541 7.707-18.332c6.041-6.041 14.791-8.958 23.332-7.291 1.667.417 3.333.833 5 1.666 1.458.625 3.125 1.459 4.375 2.292 1.458 1.042 2.916 2.083 3.958 3.333 5 4.791 7.707 11.457 7.707 18.332s-2.707 13.541-7.707 18.332z" class="primary design" opacity="1" style="display:block" transform="translate(250 250)"/><path class="primary design" style="display:none"/></g><g clip-path="url(#m)" style="display:block"><g class="primary design" mask="url(#n)" style="display:none"><path fill="none"/><path/></g><path fill="none" class="primary design" style="display:none"/><path fill="none" class="primary design" style="display:none"/><path fill="#15C69E" d="M144.15-151.323C103.736-189.654 51.031-210.07-4.59-208.82c-55.621 1.458-107.493 24.373-145.824 64.579-38.331 40.414-58.746 93.12-57.496 148.741 1.458 55.621 24.373 107.492 64.579 145.823C-104.167 187.612-53.545 207.82.201 207.82h5.208c55.621-1.458 107.493-24.373 145.824-64.579 37.289-39.164 57.496-89.994 57.496-143.949V-5.5c-1.458-55.621-24.373-107.492-64.579-145.823zM-20.422-104.66c0-11.458 9.374-20.832 20.832-20.832s20.831 9.374 20.831 20.832V-.5c0 11.458-9.373 20.832-20.831 20.832S-20.422 10.958-20.422-.5v-104.16zm39.164 205.82c-1.042 1.25-2.5 2.291-3.958 3.333-1.25.833-2.917 1.667-4.375 2.292-1.667.833-3.333 1.249-5 1.666-1.667.208-3.332.417-4.999.417-6.875 0-13.542-2.708-18.333-7.708-5-4.791-7.707-11.457-7.707-18.332s2.707-13.541 7.707-18.332c6.041-6.041 14.791-8.958 23.332-7.291 1.667.417 3.333.833 5 1.666 1.458.625 3.125 1.459 4.375 2.292 1.458 1.042 2.916 2.083 3.958 3.333 5 4.791 7.707 11.457 7.707 18.332s-2.707 13.541-7.707 18.332z" class="primary design" style="display:block" transform="translate(250 250)"/><path class="primary design" style="display:none"/></g><g clip-path="url(#o)" opacity="0" style="display:block"><g class="primary design" mask="url(#p)" style="display:none"><path/><path fill="none"/></g><path class="primary design" style="display:none"/></g><g class="com" style="display:none"><path/><path/><path/><path/><path/><path/><path/><path/><path/><path/><path/><path/></g></g></svg>