<svg xmlns="http://www.w3.org/2000/svg" width="500" height="500" style="width:100%;height:100%;transform:translate3d(0,0,0)" viewBox="0 0 500 500"><defs><clipPath id="a"><path d="M0 0h500v500H0z"/></clipPath><clipPath id="d"><path d="M0 0h500v500H0z"/></clipPath><clipPath id="c"><path d="M0 0h500v500H0z"/></clipPath><clipPath id="b"><path d="M0 0h500v500H0z"/></clipPath></defs><g clip-path="url(#a)"><g clip-path="url(#b)" opacity="0" style="display:block"><path class="primary design" style="display:none"/><g class="primary design" style="display:none"><path fill="none"/><path/></g><path fill="none" stroke="#FFF" stroke-linecap="round" stroke-linejoin="round" stroke-width="41" d="M142.866-122.474C110.232-155.121 56.5-154 24.463-117.224c-8.164 9.371-15.061 19.042-19.246 29.926C1.661-77.882.002-74.955.002-74.955s-1.688-2.927-5.452-12.343c-3.769-10.884-10.043-20.928-18.62-29.508l-.837-.838C-55-154-110.465-154.91-142.891-122.474c-32.426 32.436-32.135 89.115.081 121.761L.002 146.738 142.366-.296c32.634-32.646 33.134-89.532.5-122.178z" class="primary design" opacity="1" style="display:block" transform="translate(250 260)"/></g><g clip-path="url(#c)" style="display:block"><path fill="#FFF" d="M4.122-7.99c-1.3 0-2.53.51-3.45 1.43-.25.25-.47.54-.67.84-.19-.3-.42-.59-.7-.87-1.9-1.87-4.99-1.86-6.88.03-1.89 1.89-1.91 5.23-.03 7.13l7.07 7.2a.773.773 0 0 0 1.08 0L7.582.6c1.9-1.91 1.9-5.25 0-7.16a4.88 4.88 0 0 0-3.46-1.43z" class="primary design" style="display:block" transform="translate(249.963 260.625) scale(20.83)"/><g class="primary design" style="display:none"><path/><path fill="none"/></g><path class="primary design" style="display:none"/></g><g clip-path="url(#d)" opacity="0" style="display:block"><path class="primary design" style="display:none"/><g class="primary design" style="display:none"><path/><path fill="none"/></g><path class="primary design" style="display:none"/></g><g class="com" style="display:none"><path/><path/><path/><path/><path/><path/><path/><path/><path/><path/><path/><path/></g></g></svg>