<svg xmlns="http://www.w3.org/2000/svg" width="500" height="500" style="width:100%;height:100%;transform:translate3d(0,0,0)" viewBox="0 0 500 500"><defs><clipPath id="a"><path d="M0 0h500v500H0z"/></clipPath><clipPath id="e"><path d="M0 0h500v500H0z"/></clipPath><clipPath id="d"><path d="M0 0h500v500H0z"/></clipPath><clipPath id="c"><path d="M0 0h500v500H0z"/></clipPath><clipPath id="b"><path d="M0 0h500v500H0z"/></clipPath></defs><g clip-path="url(#a)"><g clip-path="url(#b)" opacity="0" style="display:block"><path fill="#FFF" d="M206.686-8.12c-.042-.099-.093-.194-.136-.292-.215-.482-.437-.96-.69-1.428-.194-.363-.413-.71-.628-1.06-.117-.189-.222-.383-.346-.569a21.085 21.085 0 0 0-3.268-3.845l-82.681-82.681c-8.125-8.125-21.25-8.125-29.375 0s-8.125 21.25 0 29.375l47.709 47.709h-324.792c-11.458 0-20.833 9.375-20.833 20.833 0 11.459 9.375 20.833 20.833 20.833h324.792L89.354 68.672c-8.125 8.125-8.125 21.25 0 29.375 4.167 3.958 9.375 6.042 14.792 6.042s10.624-2.084 14.791-6.042l83.334-83.333c6.186-6.186 7.648-15.265 4.415-22.834z" class="primary design" opacity="1" style="display:block" transform="translate(250.067 249.578)"/></g><g clip-path="url(#c)" opacity="0" style="display:block"><path fill="#FFF" d="M206.686-8.12c-.042-.099-.093-.194-.136-.292-.215-.482-.437-.96-.69-1.428-.194-.363-.413-.71-.628-1.06-.117-.189-.222-.383-.346-.569a21.085 21.085 0 0 0-3.268-3.845l-82.681-82.681c-8.125-8.125-21.25-8.125-29.375 0s-8.125 21.25 0 29.375l47.709 47.709h-324.792c-11.458 0-20.833 9.375-20.833 20.833 0 11.459 9.375 20.833 20.833 20.833h324.792L89.354 68.672c-8.125 8.125-8.125 21.25 0 29.375 4.167 3.958 9.375 6.042 14.792 6.042s10.624-2.084 14.791-6.042l83.334-83.333c6.186-6.186 7.648-15.265 4.415-22.834z" class="primary design" opacity="1" style="display:block" transform="translate(250.067 249.578)"/><path class="primary design" style="display:none"/></g><g clip-path="url(#d)" style="display:block"><path fill="#FFF" d="M206.686-8.12c-.042-.099-.093-.194-.136-.292-.215-.482-.437-.96-.69-1.428-.194-.363-.413-.71-.628-1.06-.117-.189-.222-.383-.346-.569a21.085 21.085 0 0 0-3.268-3.845l-82.681-82.681c-8.125-8.125-21.25-8.125-29.375 0s-8.125 21.25 0 29.375l47.709 47.709h-324.792c-11.458 0-20.833 9.375-20.833 20.833 0 11.459 9.375 20.833 20.833 20.833h324.792L89.354 68.672c-8.125 8.125-8.125 21.25 0 29.375 4.167 3.958 9.375 6.042 14.792 6.042s10.624-2.084 14.791-6.042l83.334-83.333c6.186-6.186 7.648-15.265 4.415-22.834z" class="primary design" style="display:block" transform="translate(250.067 249.578)"/></g><g clip-path="url(#e)" opacity="0" style="display:block"><path class="primary design" style="display:none"/></g><g class="com" style="display:none"><path/><path/><path/><path/><path/><path/><path/><path/><path/><path/><path/><path/></g></g></svg>